<svg width="32" height="32" viewBox="0 0 32 32" fill="none" xmlns="http://www.w3.org/2000/svg">
<path d="M29.5546 9.16726L26.6509 7.23226C26.1109 5.52402 24.9773 4.06549 23.4552 3.12061C21.9331 2.17573 20.123 1.80693 18.3526 2.08093C16.5821 2.35494 14.9682 3.25365 13.8029 4.61445C12.6376 5.97524 11.998 7.70821 11.9996 9.49976V11.6485L0.218399 26.3748C0.100616 26.5219 0.0267997 26.6993 0.00545747 26.8865C-0.0158848 27.0737 0.016116 27.2632 0.0977716 27.4331C0.179427 27.6029 0.307414 27.7462 0.46698 27.8465C0.626546 27.9467 0.811197 27.9999 0.999649 27.9998H13.9996C17.4463 27.9961 20.7508 26.6253 23.188 24.1881C25.6252 21.7509 26.996 18.4465 26.9996 14.9998V12.5348L29.5546 10.8323C29.6918 10.741 29.8043 10.6172 29.8821 10.472C29.9599 10.3267 30.0006 10.1645 30.0006 9.99976C30.0006 9.83499 29.9599 9.67278 29.8821 9.52754C29.8043 9.3823 29.6918 9.25854 29.5546 9.16726ZM13.7684 17.6398L8.7684 23.6398C8.59866 23.8436 8.35488 23.9717 8.09069 23.9959C7.8265 24.02 7.56353 23.9382 7.35965 23.7685C7.15576 23.5988 7.02766 23.355 7.00351 23.0908C6.97937 22.8266 7.06116 22.5636 7.2309 22.3598L12.2309 16.3598C12.3149 16.2588 12.4181 16.1754 12.5343 16.1143C12.6506 16.0532 12.7778 16.0156 12.9086 16.0036C13.0394 15.9917 13.1713 16.0056 13.2967 16.0446C13.4222 16.0836 13.5387 16.147 13.6396 16.231C13.7406 16.3151 13.824 16.4182 13.8851 16.5344C13.9462 16.6507 13.9838 16.7779 13.9958 16.9087C14.0077 17.0395 13.9938 17.1714 13.9548 17.2969C13.9158 17.4223 13.8524 17.5388 13.7684 17.6398ZM20.4996 9.99976C20.203 9.99976 19.913 9.91178 19.6663 9.74696C19.4196 9.58214 19.2274 9.34787 19.1138 9.07378C19.0003 8.79969 18.9706 8.49809 19.0285 8.20712C19.0863 7.91615 19.2292 7.64887 19.439 7.4391C19.6488 7.22932 19.916 7.08646 20.207 7.02858C20.498 6.9707 20.7996 7.0004 21.0737 7.11394C21.3478 7.22747 21.582 7.41973 21.7469 7.6664C21.9117 7.91307 21.9996 8.20308 21.9996 8.49976C21.9996 8.89758 21.8416 9.27911 21.5603 9.56042C21.279 9.84172 20.8975 9.99976 20.4996 9.99976Z" fill="#344564"/>
</svg>
