<svg width="54" height="58" viewBox="0 0 54 58" fill="none" xmlns="http://www.w3.org/2000/svg">
<g filter="url(#filter0_i_457_1177)">
<path fill-rule="evenodd" clip-rule="evenodd" d="M53.5832 17.6138V41.107C53.5821 42.137 53.3086 43.1485 52.7902 44.0402C52.2718 44.9319 51.5266 45.6724 50.6295 46.1874L29.9535 57.934C29.7227 58.0665 29.484 58.1828 29.239 58.2826C28.5474 58.5642 27.8748 57.9851 27.8748 57.2384V30.6027C27.8748 30.1653 28.1086 29.7613 28.4877 29.5432L51.9294 16.0613C52.5676 15.6943 53.3947 15.9742 53.5105 16.7013C53.5584 17.0021 53.5829 17.3072 53.5832 17.6138ZM50.9642 14.5976C51.6222 14.2192 51.7797 13.3281 51.166 12.8813C50.9941 12.7562 50.815 12.64 50.6295 12.5335L29.9535 0.786872C29.0555 0.271383 28.0368 0 26.9998 0C25.9629 0 24.9442 0.271383 24.0461 0.786872L3.37021 12.5335C3.18469 12.6399 3.00567 12.7561 2.83381 12.8812C2.22015 13.328 2.37759 14.2191 3.0356 14.5975L26.3907 28.0296C26.7679 28.2466 27.2321 28.2466 27.6094 28.0296L50.9642 14.5976ZM0.489226 16.7011C0.605058 15.974 1.43208 15.6941 2.07034 16.0612L25.512 29.543C25.8911 29.7611 26.1248 30.1651 26.1248 30.6025V57.2384C26.1248 57.9851 25.4523 58.5642 24.7607 58.2826C24.5157 58.1828 24.2769 58.0665 24.0461 57.934L3.37021 46.1874C2.47306 45.6724 1.72789 44.9319 1.20946 44.0402C0.691029 43.1485 0.417566 42.137 0.416504 41.107V17.6138C0.41682 17.3071 0.441303 17.0019 0.489226 16.7011Z" fill="#D6E1ED"/>
</g>
<defs>
<filter id="filter0_i_457_1177" x="0.416504" y="0" width="55.1665" height="60.355" filterUnits="userSpaceOnUse" color-interpolation-filters="sRGB">
<feFlood flood-opacity="0" result="BackgroundImageFix"/>
<feBlend mode="normal" in="SourceGraphic" in2="BackgroundImageFix" result="shape"/>
<feColorMatrix in="SourceAlpha" type="matrix" values="0 0 0 0 0 0 0 0 0 0 0 0 0 0 0 0 0 0 127 0" result="hardAlpha"/>
<feOffset dx="2" dy="2"/>
<feGaussianBlur stdDeviation="2.5"/>
<feComposite in2="hardAlpha" operator="arithmetic" k2="-1" k3="1"/>
<feColorMatrix type="matrix" values="0 0 0 0 0.66875 0 0 0 0 0.70125 0 0 0 0 0.75 0 0 0 1 0"/>
<feBlend mode="normal" in2="shape" result="effect1_innerShadow_457_1177"/>
</filter>
</defs>
</svg>
