<svg width="34" height="31" viewBox="0 0 34 31" fill="none" xmlns="http://www.w3.org/2000/svg">
<g filter="url(#filter0_i_457_1176)">
<path fill-rule="evenodd" clip-rule="evenodd" d="M31.5682 8.67997H23.9385V30.167H31.5682C32.8108 30.167 33.8182 29.1597 33.8182 27.917V10.93C33.8182 9.68732 32.8108 8.67997 31.5682 8.67997ZM26.9658 14.1614C26.9658 13.8508 27.2176 13.5989 27.5283 13.5989H30.2283C30.5389 13.5989 30.7908 13.8508 30.7908 14.1614V16.8614C30.7908 17.1721 30.5389 17.4239 30.2283 17.4239H27.5283C27.2176 17.4239 26.9658 17.1721 26.9658 16.8614V14.1614ZM26.9658 22.0364C26.9658 21.7258 27.2176 21.4739 27.5283 21.4739H30.2283C30.5389 21.4739 30.7908 21.7258 30.7908 22.0364V24.7364C30.7908 25.0471 30.5389 25.2989 30.2283 25.2989H27.5283C27.2176 25.2989 26.9658 25.0471 26.9658 24.7364V22.0364Z" fill="#D6E1ED"/>
<path fill-rule="evenodd" clip-rule="evenodd" d="M3.2334 0.855957C1.99076 0.855957 0.983398 1.86331 0.983398 3.10596V27.917C0.983398 29.1596 1.99076 30.167 3.2334 30.167H18.4812C19.7238 30.167 20.7312 29.1596 20.7312 27.917V3.10596C20.7312 1.86332 19.7238 0.855957 18.4812 0.855957H3.2334ZM12.6012 6.28646C12.6012 5.9758 12.853 5.72396 13.1637 5.72396H15.8637C16.1743 5.72396 16.4262 5.9758 16.4262 6.28646V8.98646C16.4262 9.29712 16.1743 9.54896 15.8637 9.54896H13.1637C12.853 9.54896 12.6012 9.29712 12.6012 8.98646V6.28646ZM5.28839 6.28647C5.28839 5.97581 5.54023 5.72397 5.85089 5.72397H8.55089C8.86155 5.72397 9.11339 5.97581 9.11339 6.28647V8.98647C9.11339 9.29713 8.86155 9.54897 8.55089 9.54897H5.85089C5.54023 9.54897 5.28839 9.29713 5.28839 8.98647V6.28647ZM5.85117 13.599C5.54051 13.599 5.28867 13.8508 5.28867 14.1615V16.8615C5.28867 17.1721 5.54051 17.424 5.85117 17.424H8.55117C8.86183 17.424 9.11367 17.1721 9.11367 16.8615V14.1615C9.11367 13.8508 8.86183 13.599 8.55117 13.599H5.85117ZM5.28867 22.0364C5.28867 21.7258 5.54051 21.4739 5.85117 21.4739H8.55117C8.86183 21.4739 9.11367 21.7258 9.11367 22.0364V24.7364C9.11367 25.0471 8.86183 25.2989 8.55117 25.2989H5.85117C5.54051 25.2989 5.28867 25.0471 5.28867 24.7364V22.0364ZM13.1637 13.599C12.853 13.599 12.6012 13.8508 12.6012 14.1615V16.8615C12.6012 17.1721 12.853 17.424 13.1637 17.424H15.8637C16.1743 17.424 16.4262 17.1721 16.4262 16.8615V14.1615C16.4262 13.8508 16.1743 13.599 15.8637 13.599H13.1637ZM12.6012 22.0364C12.6012 21.7258 12.853 21.4739 13.1637 21.4739H15.8637C16.1743 21.4739 16.4262 21.7258 16.4262 22.0364V24.7364C16.4262 25.0471 16.1743 25.2989 15.8637 25.2989H13.1637C12.853 25.2989 12.6012 25.0471 12.6012 24.7364V22.0364Z" fill="#D6E1ED"/>
</g>
<defs>
<filter id="filter0_i_457_1176" x="0.983398" y="0.855957" width="34.835" height="31.311" filterUnits="userSpaceOnUse" color-interpolation-filters="sRGB">
<feFlood flood-opacity="0" result="BackgroundImageFix"/>
<feBlend mode="normal" in="SourceGraphic" in2="BackgroundImageFix" result="shape"/>
<feColorMatrix in="SourceAlpha" type="matrix" values="0 0 0 0 0 0 0 0 0 0 0 0 0 0 0 0 0 0 127 0" result="hardAlpha"/>
<feOffset dx="2" dy="2"/>
<feGaussianBlur stdDeviation="2.5"/>
<feComposite in2="hardAlpha" operator="arithmetic" k2="-1" k3="1"/>
<feColorMatrix type="matrix" values="0 0 0 0 0.66875 0 0 0 0 0.70125 0 0 0 0 0.75 0 0 0 1 0"/>
<feBlend mode="normal" in2="shape" result="effect1_innerShadow_457_1176"/>
</filter>
</defs>
</svg>
