<svg width="29" height="32" viewBox="0 0 29 32" fill="none" xmlns="http://www.w3.org/2000/svg">
<g id="Design_Directions/Fill/CSS">
<g id="Shape">
<path d="M18.4715 27.0892C17.7493 27.1333 17.1622 26.4567 17.1622 25.6368C17.1622 24.8168 17.779 24.2718 18.4586 23.9913C19.0452 23.7491 19.1405 23.1819 19.1405 21.9592V19.5811C19.1405 17.277 20.7213 16.1801 21.1 15.9504C21.1246 15.9355 21.1182 15.8916 21.0908 15.8863C21.0876 15.8856 21.0845 15.8844 21.0817 15.8826C19.622 14.9499 19.1405 14.068 19.1405 12.6941V9.80268C19.1405 8.57582 19.0436 8.03245 18.444 7.80808C17.7663 7.55449 17.1621 7.0092 17.1622 6.20005C17.1622 5.39092 17.7419 4.72281 18.4541 4.77403C20.7855 4.94168 22.4064 5.75478 22.4064 9.13555L22.4064 11.3835C22.4064 12.3956 22.5814 13.0809 23.0185 13.4943C23.7685 14.2037 24.6958 14.8905 24.6958 15.9979C24.6958 17.1053 23.7685 17.7921 23.0185 18.5015C22.5814 18.9149 22.4064 19.6002 22.4064 20.6123V22.8514C22.4064 26.2238 20.7935 26.9473 18.4715 27.0892Z" fill="#344564"/>
<path d="M9.75221 4.76718C10.4743 4.72304 11.0615 5.39969 11.0615 6.21962C11.0615 7.03955 10.4446 7.58457 9.76512 7.8651C9.17847 8.10729 9.08313 8.67447 9.08313 9.89724L9.08313 12.2753C9.08313 14.5794 7.50232 15.6763 7.12363 15.906C7.0991 15.9209 7.10544 15.9647 7.13286 15.9701C7.13604 15.9708 7.13917 15.972 7.14198 15.9738C8.60166 16.9065 9.08313 17.7884 9.08313 19.1623L9.08313 22.0537C9.08313 23.2806 9.18006 23.8239 9.77968 24.0483C10.4574 24.3019 11.0615 24.8472 11.0615 25.6563C11.0615 26.4655 10.4818 27.1336 9.76956 27.0824C7.43822 26.9147 5.81725 26.1016 5.81725 22.7208L5.81725 20.4729C5.81725 19.4608 5.64225 18.7754 5.20517 18.3621C4.45518 17.6527 3.52783 16.9658 3.52783 15.8585C3.52783 14.7511 4.45518 14.0643 5.20517 13.3549C5.64225 12.9415 5.81725 12.2562 5.81725 11.2441L5.81725 9.00496C5.81725 5.63258 7.43018 4.9091 9.75221 4.76718Z" fill="#344564"/>
</g>
</g>
</svg>
