<svg width="24" height="24" viewBox="0 0 24 24" fill="none" xmlns="http://www.w3.org/2000/svg">
<path fill-rule="evenodd" clip-rule="evenodd" d="M4.00306 5.01529C4.00018 5.00584 4.00001 5.00151 4 5.00027V5.00006V5V4.99994C4 4.99905 3.99998 4.99479 4.00306 4.98471C4.00645 4.97356 4.01483 4.95155 4.03508 4.91857C4.07752 4.84943 4.16408 4.74547 4.32624 4.61768C4.65642 4.35747 5.19616 4.0794 5.95227 3.82736C7.45402 3.32678 9.59229 3 12 3C14.4077 3 16.546 3.32678 18.0477 3.82736C18.8038 4.0794 19.3436 4.35747 19.6738 4.61768C19.8359 4.74547 19.9225 4.84943 19.9649 4.91857C19.9852 4.95155 19.9935 4.97356 19.9969 4.98471C20 4.99479 20 4.99905 20 4.99994V5V5.00006V5.00022C20 5.00139 19.9999 5.00571 19.9969 5.01529C19.9935 5.02644 19.9852 5.04845 19.9649 5.08143C19.9225 5.15057 19.8359 5.25453 19.6738 5.38232C19.3436 5.64253 18.8038 5.9206 18.0477 6.17264C16.546 6.67322 14.4077 7 12 7C9.59229 7 7.45402 6.67322 5.95227 6.17264C5.19616 5.9206 4.65642 5.64253 4.32624 5.38232C4.16408 5.25453 4.07752 5.15057 4.03508 5.08143C4.01483 5.04845 4.00645 5.02644 4.00306 5.01529ZM20 8.34386C20 7.97019 19.6022 7.72383 19.2548 7.86133C19.0688 7.93492 18.8769 8.00443 18.6802 8.07C16.9246 8.6552 14.5629 9 12 9C9.43715 9 7.07541 8.6552 5.31981 8.07C5.12309 8.00443 4.93116 7.93492 4.74521 7.86133C4.39776 7.72383 4 7.97019 4 8.34386V12C4 12.0019 4.00008 12.007 4.0034 12.018C4.00695 12.0298 4.01544 12.0521 4.03558 12.0851C4.07772 12.1543 4.16348 12.258 4.32419 12.3853C4.65159 12.6447 5.18788 12.9223 5.94167 13.174C7.43891 13.6738 9.57677 14 12 14C14.4232 14 16.5611 13.6738 18.0583 13.174C18.8121 12.9223 19.3484 12.6447 19.6758 12.3853C19.8365 12.258 19.9223 12.1543 19.9644 12.0851C19.9846 12.0521 19.993 12.0298 19.9966 12.018C19.9999 12.007 20 12.0019 20 12V8.34386ZM5.30834 15.071C5.11566 15.0067 4.92763 14.9386 4.74536 14.8665C4.39784 14.7291 4 14.9755 4 15.3492V19C4 19.0019 4.00008 19.007 4.0034 19.018C4.00695 19.0298 4.01544 19.0521 4.03558 19.0851C4.07772 19.1543 4.16348 19.258 4.32419 19.3853C4.65159 19.6447 5.18788 19.9223 5.94167 20.174C7.43891 20.6738 9.57677 21 12 21C14.4232 21 16.5611 20.6738 18.0583 20.174C18.8121 19.9223 19.3484 19.6447 19.6758 19.3853C19.8365 19.258 19.9223 19.1543 19.9644 19.0851C19.9846 19.0521 19.993 19.0298 19.9966 19.018C19.9999 19.007 20 19.0019 20 19V15.3492C20 14.9755 19.6022 14.7291 19.2546 14.8665C19.0724 14.9386 18.8843 15.0067 18.6917 15.071C16.9389 15.6562 14.5768 16 12 16C9.42324 16 7.06109 15.6562 5.30834 15.071Z" fill="#344564"/>
</svg>
