<svg width="24" height="24" viewBox="0 0 24 24" fill="none" xmlns="http://www.w3.org/2000/svg">
<path fill-rule="evenodd" clip-rule="evenodd" d="M12 1C5.92487 1 1 5.92487 1 12C1 18.0751 5.92487 23 12 23C18.0751 23 23 18.0751 23 12C23 5.92487 18.0751 1 12 1ZM12.875 5C12.875 4.51675 12.4832 4.125 12 4.125C11.5168 4.125 11.125 4.51675 11.125 5V6.125H10.3333C9.46219 6.125 8.64003 6.49633 8.04374 7.1352C7.44937 7.77204 7.125 8.62363 7.125 9.5C7.125 10.3764 7.44937 11.228 8.04374 11.8648C8.64003 12.5037 9.46219 12.875 10.3333 12.875H11.125V16.125H8C7.51675 16.125 7.125 16.5168 7.125 17C7.125 17.4832 7.51675 17.875 8 17.875H11.125V19C11.125 19.4832 11.5168 19.875 12 19.875C12.4832 19.875 12.875 19.4832 12.875 19V17.875H13.6667C14.5378 17.875 15.36 17.5037 15.9563 16.8648C16.5506 16.228 16.875 15.3764 16.875 14.5C16.875 13.6236 16.5506 12.772 15.9563 12.1352C15.36 11.4963 14.5378 11.125 13.6667 11.125H12.875V7.875H15.3333C15.8166 7.875 16.2083 7.48325 16.2083 7C16.2083 6.51675 15.8166 6.125 15.3333 6.125H12.875V5ZM10.3333 7.875H11.125V11.125H10.3333C9.9668 11.125 9.60198 10.9695 9.32309 10.6707C9.0423 10.3699 8.875 9.94971 8.875 9.5C8.875 9.05029 9.0423 8.63011 9.32309 8.32926C9.60198 8.03045 9.9668 7.875 10.3333 7.875ZM12.875 16.125V12.875H13.6667C14.0332 12.875 14.398 13.0305 14.6769 13.3293C14.9577 13.6301 15.125 14.0503 15.125 14.5C15.125 14.9497 14.9577 15.3699 14.6769 15.6707C14.398 15.9695 14.0332 16.125 13.6667 16.125H12.875Z" fill="#344564"/>
</svg>
