<svg width="33" height="32" viewBox="0 0 33 32" fill="none" xmlns="http://www.w3.org/2000/svg">
<path d="M22.0072 9.49235C22.0072 9.78902 21.9192 10.079 21.7544 10.3257C21.5896 10.5724 21.3553 10.7646 21.0812 10.8782C20.8071 10.9917 20.5055 11.0214 20.2146 10.9635C19.9236 10.9057 19.6563 10.7628 19.4465 10.553C19.2368 10.3432 19.0939 10.076 19.036 9.78499C18.9782 9.49402 19.0079 9.19242 19.1214 8.91833C19.2349 8.64424 19.4272 8.40997 19.6739 8.24515C19.9205 8.08033 20.2105 7.99235 20.5072 7.99235C20.905 7.99235 21.2866 8.15039 21.5679 8.43169C21.8492 8.713 22.0072 9.09453 22.0072 9.49235ZM26.991 19.6174C24.396 22.9136 20.2597 24.7099 14.6897 24.9636L11.9397 31.3911C11.8627 31.5722 11.734 31.7266 11.5697 31.8349C11.4054 31.9431 11.2127 32.0005 11.016 31.9999H10.9522C10.7461 31.9869 10.5491 31.9106 10.3882 31.7812C10.2273 31.6518 10.1103 31.4758 10.0535 31.2774L8.20221 24.7961L1.72471 22.9411C1.52567 22.8852 1.34885 22.769 1.21859 22.6084C1.08833 22.4479 1.01102 22.2509 0.997318 22.0447C0.983611 21.8384 1.03418 21.6329 1.14205 21.4565C1.24993 21.2802 1.40982 21.1416 1.59971 21.0599L8.02846 18.3099C8.27846 12.7386 10.0797 8.60235 13.3772 6.0086C18.7785 1.7586 26.491 3.15485 27.9822 3.47735C28.3579 3.55853 28.7022 3.74624 28.974 4.01803C29.2458 4.28981 29.4335 4.63416 29.5147 5.00985C29.8447 6.49985 31.2422 14.2199 26.991 19.6249V19.6174ZM27.566 5.4311C26.2272 5.1411 19.316 3.88235 14.6197 7.5786C14.0276 8.04589 13.4897 8.57795 13.016 9.16485C12.968 9.81828 13.0633 10.4743 13.2951 11.0871C13.527 11.6998 13.8899 12.2546 14.3585 12.7126C14.827 13.1705 15.3899 13.5206 16.0079 13.7384C16.6258 13.9563 17.2838 14.0365 17.936 13.9736C18.0826 13.9597 18.2304 13.9783 18.369 14.0282C18.5076 14.078 18.6334 14.1579 18.7375 14.262C18.8417 14.3662 18.9215 14.492 18.9714 14.6306C19.0212 14.7691 19.0399 14.917 19.026 15.0636C18.963 15.716 19.0433 16.3742 19.2613 16.9924C19.4792 17.6105 19.8296 18.1735 20.2878 18.6421C20.746 19.1107 21.3011 19.4735 21.9142 19.7052C22.5273 19.937 23.1836 20.032 23.8372 19.9836C24.4224 19.5105 24.9528 18.9735 25.4185 18.3824C29.1147 13.6861 27.856 6.77235 27.566 5.4336V5.4311Z" fill="#344564"/>
</svg>
