<svg width="24" height="24" viewBox="0 0 24 24" fill="none" xmlns="http://www.w3.org/2000/svg">
<path fill-rule="evenodd" clip-rule="evenodd" d="M22 12C22 17.5228 17.5228 22 12 22C6.47715 22 2 17.5228 2 12C2 6.47715 6.47715 2 12 2C17.5228 2 22 6.47715 22 12ZM15 10C15.5523 10 16 9.55228 16 9C16 8.44772 15.5523 8 15 8C14.4477 8 14 8.44772 14 9C14 9.55228 14.4477 10 15 10ZM10 9C10 9.55228 9.55228 10 9 10C8.44772 10 8 9.55228 8 9C8 8.44772 8.44772 8 9 8C9.55228 8 10 8.44772 10 9ZM7.60864 16.7826C8.03793 16.9973 8.55932 16.8259 8.77813 16.4001C8.7774 16.4014 8.77732 16.4016 8.77789 16.4005L8.77956 16.3973L8.7809 16.3946L8.7817 16.3931L8.78212 16.3922C8.7808 16.3948 8.77947 16.3975 8.77813 16.4001C8.77827 16.3998 8.77842 16.3995 8.7786 16.3992C8.78091 16.395 8.78688 16.3844 8.79671 16.3682C8.81644 16.3357 8.85136 16.2814 8.90307 16.2125C9.00679 16.0742 9.17549 15.8801 9.42156 15.6833C9.90259 15.2984 10.7125 14.875 11.9999 14.875C13.2874 14.875 14.0973 15.2984 14.5783 15.6833C14.8244 15.8801 14.9931 16.0742 15.0968 16.2125C15.1485 16.2814 15.1835 16.3357 15.2032 16.3682C15.213 16.3844 15.219 16.395 15.2213 16.3992C15.2215 16.3995 15.2216 16.3998 15.2218 16.4001C15.2221 16.4007 15.2223 16.4011 15.2224 16.4012L15.222 16.4005L15.2203 16.3973L15.219 16.3946L15.2182 16.3931L15.2178 16.3922C15.2191 16.3949 15.2204 16.3975 15.2218 16.4001C15.4406 16.8259 15.962 16.9973 16.3913 16.7826C16.8235 16.5665 16.9987 16.0409 16.7826 15.6087L15.9999 16C16.7826 15.6087 16.7823 15.6082 16.7821 15.6077L16.7816 15.6068L16.7805 15.6046L16.7781 15.5998L16.772 15.588C16.7673 15.5792 16.7616 15.5684 16.7547 15.5559C16.7409 15.5308 16.7224 15.4984 16.6991 15.46C16.6524 15.3831 16.5857 15.2811 16.4968 15.1625C16.3193 14.9258 16.0505 14.6199 15.6716 14.3167C14.9026 13.7016 13.7125 13.125 11.9999 13.125C10.2874 13.125 9.0973 13.7016 8.32834 14.3167C7.94941 14.6199 7.68061 14.9258 7.50307 15.1625C7.41416 15.2811 7.34752 15.3831 7.30084 15.46C7.27747 15.4984 7.25903 15.5308 7.24522 15.5559C7.23832 15.5684 7.23256 15.5792 7.22793 15.588L7.2218 15.5998L7.21936 15.6046L7.21829 15.6068L7.21779 15.6077C7.21756 15.6082 7.21732 15.6087 7.99995 16L7.21732 15.6087C7.00121 16.0409 7.1764 16.5665 7.60864 16.7826Z" fill="#344564"/>
</svg>
