<svg width="72" height="23" viewBox="0 0 72 23" fill="none" xmlns="http://www.w3.org/2000/svg">
<path d="M7.55217 1.01438C6.50013 3.71963 0 21.6044 0 21.905C0 22.0552 0.939325 22.168 2.10409 22.0928L4.20817 21.9801L4.95963 19.9887L5.67352 18.0349H9.54354H13.376L14.0899 20.1015L14.7662 22.168H17.0206C18.8616 22.168 19.1998 22.0552 19.0119 21.6044C18.8992 21.2662 17.0581 16.269 14.954 10.5203L11.084 -9.16049e-05H9.54354C8.19091 -9.16049e-05 7.9279 0.1502 7.55217 1.01438ZM11.8731 13.9771C12.0609 14.5782 11.7979 14.6534 9.61868 14.6534C8.26606 14.6534 7.13887 14.5031 7.13887 14.3152C7.13887 14.1274 7.66489 12.5869 8.3412 10.8585L9.50596 7.73994L10.5956 10.5579C11.1592 12.0984 11.7603 13.6389 11.8731 13.9771Z" fill="#344564"/>
<path d="M36.2582 0.939361C35.7322 1.42781 35.3188 2.25442 35.3188 2.74286C35.3188 3.90763 36.7842 5.26025 38.0617 5.26025C40.4288 5.26025 41.4432 2.25442 39.6022 0.789069C38.2871 -0.225401 37.3854 -0.187828 36.2582 0.939361Z" fill="#344564"/>
<path d="M45.4636 5.07236V7.13887H43.7352H42.0444L42.1572 8.71694C42.2699 10.3326 42.2699 10.3326 43.8855 10.4453L45.4636 10.558V14.3905C45.4636 20.4397 46.8538 22.3184 51.2874 22.3184C52.64 22.3184 53.9175 22.1305 54.1429 21.9051C54.3684 21.6796 54.4435 20.9657 54.2932 20.1391C54.0302 18.8616 53.9175 18.7865 52.64 18.7865C51.8886 18.7865 50.8741 18.5235 50.4232 18.1853C49.6717 17.6593 49.5966 17.3212 49.5966 14.0523V10.5204H52.0388H54.4811V8.82966V7.13887H52.0388H49.5966V5.07236V3.00584H47.5301H45.4636V5.07236Z" fill="#344564"/>
<path d="M60.2295 7.7024C54.5935 10.5204 54.5184 18.561 60.1168 21.4165C66.3163 24.5727 73.2673 19.5003 71.802 12.9626C70.6372 7.77755 65.114 5.29773 60.2295 7.7024ZM66.9926 12.0233C68.984 14.2777 68.0071 17.5465 65.0388 18.4483C61.9578 19.35 59.1774 16.5321 60.0792 13.4511C61.0185 10.4077 64.8134 9.61862 66.9926 12.0233Z" fill="#344564"/>
<path d="M18.1099 7.58968C18.2226 7.85269 19.4625 11.2718 20.8527 15.1418L23.4453 22.2056L26.0378 22.0928L28.6679 21.9801L31.3732 14.6534L34.0784 7.32666L32.1998 7.21395C31.1853 7.1388 30.2084 7.21395 30.0581 7.40181C29.9078 7.5521 28.9685 9.95677 27.9916 12.6996C26.9771 15.4424 26.0378 17.5465 25.9251 17.3962C25.7748 17.2084 24.8355 14.8413 23.8586 12.0984L22.0551 7.1388H20.0261C18.5232 7.1388 17.9972 7.25152 18.1099 7.58968Z" fill="#344564"/>
<path d="M36.0703 14.6534V22.168H37.949H39.8276V14.6534V7.13878H37.949H36.0703V14.6534Z" fill="#344564"/>
</svg>
