<svg width="30" height="32" viewBox="0 0 30 32" fill="none" xmlns="http://www.w3.org/2000/svg">
<g id="Design_Directions/Fill/HTML">
<g id="Shape">
<path d="M18.6232 9.76953C18.8558 9.04618 18.3683 8.10428 17.748 7.83302C17.1277 7.56176 16.0657 7.81334 15.8331 8.53669L11.5996 21.7019C11.3669 22.4253 11.8615 23.3844 12.4818 23.6556C13.1021 23.9269 14.157 23.6581 14.3896 22.9348L18.6232 9.76953Z" fill="#344564"/>
<path d="M9.54755 10.5464C9.85277 11.2155 9.77511 12.2528 9.11329 12.7186L4.77228 15.8993L9.20338 19.0088C9.97839 19.6138 9.85277 20.6301 9.54755 21.2992C9.24233 21.9684 8.30131 22.4805 7.60403 21.9438L1.44973 17.2679C1.12619 17.0126 0.928223 16.3956 0.928223 15.8993C0.928223 15.4029 1.12619 14.8457 1.44973 14.5903L7.47698 9.95544C8.12745 9.49298 9.19485 9.77312 9.54755 10.5464Z" fill="#344564"/>
<path d="M20.6045 21.3527C20.2993 20.6836 20.3769 19.6463 21.0387 19.1805L25.3797 15.9998L20.9487 12.8903C20.1736 12.2853 20.2993 11.269 20.6045 10.5999C20.9097 9.93071 21.8507 9.41863 22.548 9.95533L28.7023 14.6312C29.0258 14.8865 29.2238 15.5035 29.2238 15.9998C29.2238 16.4962 29.0258 17.0534 28.7023 17.3088L22.6751 21.9437C22.0246 22.4061 20.9572 22.126 20.6045 21.3527Z" fill="#344564"/>
</g>
</g>
</svg>
