<svg width="24" height="24" viewBox="0 0 24 24" fill="none" xmlns="http://www.w3.org/2000/svg">
<g clip-path="url(#clip0_47_519)">
<path fill-rule="evenodd" clip-rule="evenodd" d="M23 7.28849V17.0098C22.9996 17.436 22.8864 17.8546 22.6719 18.2235C22.4574 18.5925 22.149 18.8989 21.7778 19.112L13.2222 23.9727V23.9727C13.0612 24.0651 12.875 23.9383 12.875 23.7526V13.021C12.875 12.8023 12.9919 12.6002 13.1814 12.4912L22.5942 7.07773C22.7734 6.97464 22.9998 7.0817 23 7.28849V7.28849ZM21.7659 5.53531C21.9027 5.45663 21.9146 5.26482 21.7778 5.18626V5.18626L13.2222 0.325602C12.8506 0.112296 12.4291 0 12 0C11.5709 0 11.1494 0.112296 10.7778 0.325602L8.88204 1.40262C8.47065 1.63634 8.46949 2.22879 8.87996 2.46413L17.9352 7.65583V7.65583C17.9797 7.68136 18.0345 7.68133 18.079 7.65574L21.7659 5.53531ZM6.4864 3.10904C6.29888 3.00152 6.06851 3.00107 5.88057 3.10785L2.22222 5.18626V5.18626C2.0854 5.2648 2.09735 5.45656 2.23411 5.53522L11.6954 10.9766C11.884 11.0851 12.1161 11.0851 12.3047 10.9766L15.3281 9.23782C15.737 9.00265 15.7366 8.41253 15.3274 8.17791L6.4864 3.10904ZM1 7.28849C1.00021 7.08166 1.22664 6.97458 1.40593 7.07769L10.8186 12.4911C11.0081 12.6002 11.125 12.8022 11.125 13.0209V23.7526C11.125 23.9383 10.9388 24.0651 10.7778 23.9727V23.9727L2.22222 19.112C1.85099 18.8989 1.54264 18.5925 1.32812 18.2235C1.1136 17.8546 1.00044 17.436 1 17.0098V7.28849V7.28849Z" fill="#344564"/>
</g>
<defs>
<clipPath id="clip0_47_519">
<rect width="24" height="24" fill="white"/>
</clipPath>
</defs>
</svg>
