<svg width="27" height="27" viewBox="0 0 27 27" fill="none" xmlns="http://www.w3.org/2000/svg">
<g id="shopping-cart" clip-path="url(#clip0_305_1296)">
<path id="shopping-cart_2" fill-rule="evenodd" clip-rule="evenodd" d="M1.125 0C0.50368 0 0 0.50368 0 1.125C0 1.74632 0.50368 2.25 1.125 2.25H4.70272L5.64685 6.97063C5.64717 6.97223 5.64749 6.97383 5.64782 6.97543L7.53673 16.4088C7.69118 17.1853 8.11376 17.8829 8.73055 18.3794C9.34449 18.8736 10.1119 19.1373 10.8997 19.125H21.8153C22.6031 19.1373 23.3705 18.8736 23.9845 18.3794C24.6015 17.8827 25.0242 17.1848 25.1785 16.4079L26.9801 6.96074C27.0429 6.6314 26.9555 6.2912 26.7418 6.03287C26.5281 5.77454 26.2103 5.625 25.875 5.625H7.67228L6.72815 0.904369C6.62298 0.378517 6.16127 0 5.625 0H1.125ZM10.125 21.375C8.88236 21.375 7.875 22.3824 7.875 23.625C7.875 24.8676 8.88236 25.875 10.125 25.875C11.3676 25.875 12.375 24.8676 12.375 23.625C12.375 22.3824 11.3676 21.375 10.125 21.375ZM22.5 21.375C21.2574 21.375 20.25 22.3824 20.25 23.625C20.25 24.8676 21.2574 25.875 22.5 25.875C23.7426 25.875 24.75 24.8676 24.75 23.625C24.75 22.3824 23.7426 21.375 22.5 21.375Z" fill="#344564"/>
</g>
<defs>
<clipPath id="clip0_305_1296">
<rect width="27" height="27" fill="white"/>
</clipPath>
</defs>
</svg>
