<svg width="24" height="24" viewBox="0 0 24 24" fill="none" xmlns="http://www.w3.org/2000/svg">
<path fill-rule="evenodd" clip-rule="evenodd" d="M12 2C6.47715 2 2 6.47715 2 12C2 17.5228 6.47715 22 12 22C17.5228 22 22 17.5228 22 12C22 6.47715 17.5228 2 12 2ZM7.60864 13.2176C8.03793 13.003 8.55933 13.1743 8.77813 13.6002L8.7786 13.601C8.78091 13.6052 8.78688 13.6159 8.79671 13.6321C8.81644 13.6646 8.85136 13.7188 8.90307 13.7877C9.00679 13.926 9.17549 14.1201 9.42156 14.317C9.90259 14.7018 10.7125 15.1252 11.9999 15.1252C13.2874 15.1252 14.0973 14.7018 14.5783 14.317C14.8244 14.1201 14.9931 13.926 15.0968 13.7877C15.1485 13.7188 15.1835 13.6646 15.2032 13.6321C15.213 13.6159 15.219 13.6052 15.2213 13.601L15.2218 13.6001C15.2225 13.5988 15.2226 13.5987 15.222 13.5997L15.2218 13.6001C15.4406 13.1743 15.962 13.003 16.3913 13.2176C16.8235 13.4337 16.9987 13.9593 16.7826 14.3916L15.9999 14.0002C16.7826 14.3916 16.7823 14.392 16.7821 14.3925L16.7816 14.3935L16.7805 14.3956L16.7781 14.4004L16.772 14.4122L16.7618 14.4312L16.7547 14.4444C16.7409 14.4695 16.7224 14.5018 16.6991 14.5403C16.6524 14.6172 16.5857 14.7192 16.4968 14.8377C16.3193 15.0745 16.0505 15.3804 15.6716 15.6835C14.9026 16.2987 13.7125 16.8752 11.9999 16.8752C10.2874 16.8752 9.0973 16.2987 8.32834 15.6835C7.94941 15.3804 7.68061 15.0745 7.50307 14.8377C7.41416 14.7192 7.34752 14.6172 7.30084 14.5403C7.27747 14.5018 7.25903 14.4695 7.24522 14.4444C7.23832 14.4318 7.23256 14.4211 7.22793 14.4122L7.2218 14.4004L7.21936 14.3956L7.21829 14.3935L7.21779 14.3925C7.21756 14.392 7.21732 14.3916 7.99995 14.0002L7.21732 14.3916C7.00121 13.9593 7.1764 13.4337 7.60864 13.2176ZM16 9C16 9.55228 15.5523 10 15 10C14.4477 10 14 9.55228 14 9C14 8.44772 14.4477 8 15 8C15.5523 8 16 8.44772 16 9ZM9 10C9.55228 10 10 9.55228 10 9C10 8.44772 9.55228 8 9 8C8.44772 8 8 8.44772 8 9C8 9.55228 8.44772 10 9 10Z" fill="#344564"/>
</svg>
