<svg width="24" height="24" viewBox="0 0 24 24" fill="none" xmlns="http://www.w3.org/2000/svg">
<path fill-rule="evenodd" clip-rule="evenodd" d="M13.5 4H1C0.447715 4 0 4.44772 0 5V15C0 15.5523 0.447715 16 1 16H1.37731C2.11038 15.0855 3.23681 14.5 4.5 14.5C5.76319 14.5 6.88963 15.0855 7.62269 16H13.5C14.0523 16 14.5 15.5523 14.5 15V5C14.5 4.44772 14.0523 4 13.5 4ZM16.0022 9C16.0022 8.44772 16.4499 8 17.0022 8H20.4054C20.6595 8 20.904 8.09674 21.0894 8.27056L23.684 10.7037C23.8856 10.8927 24 11.1568 24 11.4332V15C24 15.5523 23.5523 16 23 16H22.6227C21.8896 15.0855 20.7632 14.5 19.5 14.5C18.3019 14.5 17.2268 15.0267 16.4937 15.8613C16.1995 15.6872 16.0022 15.3666 16.0022 15V9ZM4.5 21C5.88071 21 7 19.8807 7 18.5C7 17.1193 5.88071 16 4.5 16C3.11929 16 2 17.1193 2 18.5C2 19.8807 3.11929 21 4.5 21ZM22 18.5C22 19.8807 20.8807 21 19.5 21C18.1193 21 17 19.8807 17 18.5C17 17.1193 18.1193 16 19.5 16C20.8807 16 22 17.1193 22 18.5Z" fill="#344564"/>
</svg>
